Coordinates
version=1
nRows=9
nColumns=24
inDegrees=yes

Units are S.I. units (second, meters, Newtons, ...)
Angles are in degrees.

endheader
time	pelvis_tilt	pelvis_list	pelvis_rotation	pelvis_tx	pelvis_ty	pelvis_tz	hip_flexion_r	hip_adduction_r	hip_rotation_r	knee_angle_r	ankle_angle_r	subtalar_angle_r	mtp_angle_r	hip_flexion_l	hip_adduction_l	hip_rotation_l	knee_angle_l	ankle_angle_l	subtalar_angle_l	mtp_angle_l	lumbar_extension	lumbar_bending	lumbar_rotation
      3.93500000	     -5.01042724	      3.84819737	      6.13323133	     -0.32218287	     -0.03448303	     -0.20292196	     36.02952855	     -3.58948369	     -4.88047803	    -16.46015409	      1.41213938	      9.15538577	     10.10745529	     -9.48206586	      6.96502763	     -5.67543974	    -23.13942609	     13.88820006	     22.47822369	     -7.76378847	      3.00244235	     -6.96720514	    -10.46018020
      3.94000000	     -5.02494035	      3.60873191	      6.20646240	     -0.31430958	     -0.03506413	     -0.20238529	     35.94317893	     -3.25990534	     -4.88970345	    -17.14293712	      0.88490566	      8.84624620	     10.38055165	     -9.50651462	      6.46580226	     -5.79348657	    -23.89989249	     12.67209155	     22.63027497	     -5.26178710	      3.24112535	     -6.68922582	    -10.36163528
      3.94500000	     -5.10131724	      3.28794812	      6.28872425	     -0.30631670	     -0.03565512	     -0.20190088	     35.92156794	     -2.87944154	     -5.01907523	    -17.85736922	      0.36147651	      8.71206340	     10.45347033	     -9.37659227	      5.87753522	     -5.90916046	    -24.92769956	     11.93209780	     22.94695071	     -4.88137456	      3.57874067	     -6.32240408	    -10.25310641
      3.95000000	     -5.05579510	      2.98799282	      6.28251574	     -0.29843306	     -0.03604223	     -0.20129928	     35.74712759	     -2.42835794	     -4.83285261	    -18.39910314	     -0.86940858	      7.92624778	     11.59571174	     -9.42807375	      5.31453446	     -6.08004379	    -25.55810263	      9.95106652	     22.83499816	     -0.29927228	      3.75439683	     -5.95720635	    -10.12236744
      3.95500000	     -5.10637184	      2.62084190	      6.26546042	     -0.29047544	     -0.03648117	     -0.20060778	     35.72125077	     -1.90210616	     -4.68895585	    -19.11364099	     -1.73470877	      7.42531602	     11.37689034	     -9.28114518	      4.65905026	     -6.30984804	    -26.42543890	      8.29331248	     22.94869145	      2.81829179	      4.05862216	     -5.53526951	     -9.91698165
      3.96000000	     -5.17771058	      2.20061664	      6.22168602	     -0.28248322	     -0.03688206	     -0.19991558	     35.71534717	     -1.30884243	     -4.47973630	    -19.77534718	     -2.80913167	      6.79166687	     11.48482518	     -9.05648552	      3.94536010	     -6.57672628	    -27.37138717	      6.57031699	     23.03453154	      5.69204757	      4.39571489	     -5.05012112	     -9.70403242
      3.96500000	     -5.25791470	      1.75053874	      6.14936491	     -0.27449176	     -0.03724417	     -0.19917174	     35.73530664	     -0.65378484	     -4.17177646	    -20.48375856	     -3.79839256	      6.16453785	     11.17150232	     -8.77162037	      3.19252193	     -6.85909552	    -28.36187915	      4.67893926	     23.08022555	      8.67390747	      4.74482762	     -4.53395671	     -9.46188777
      3.97000000	     -5.45529320	      1.29630319	      6.07857432	     -0.26657484	     -0.03774536	     -0.19832694	     35.91675767	      0.02509389	     -3.75257371	    -21.24669935	     -4.79517588	      5.37734004	     10.72591808	     -8.22406516	      2.41247329	     -7.19138063	    -29.69353683	      3.16245374	     23.33776799	      9.67768658	      5.20476280	     -4.04575824	     -9.24949632
      3.97500000	     -5.46283386	      0.81086365	      5.85871355	     -0.25843282	     -0.03797001	     -0.19748791	     35.86764399	      0.82839357	     -3.22947285	    -21.99730260	     -5.63580661	      4.78694631	     10.20932598	     -8.02736252	      1.63759895	     -7.51687469	    -30.49518007	      0.49892232	     23.03175123	     14.11910337	      5.50955982	     -3.44454041	     -8.82074831
